<svg width="213" height="229" viewBox="0 0 213 229" fill="none" xmlns="http://www.w3.org/2000/svg">
<path d="M212.999 216C212.999 222.5 208.499 226.5 202.499 226.5L31.9492 226.839C30.949 226.839 8.49902 226.5 -0.000976563 226.5L158.999 66.9998C165.165 60.8335 174.733 60.7324 180.899 66.8987L212.999 99C212.999 107.5 212.999 196.5 212.999 205.5V216Z" fill="#FFC200"/>
<path d="M61.9959 213.015C70.3076 204.689 76.6903 197.585 76.2521 197.147C75.8139 196.71 68.7207 203.105 60.409 211.431C52.0973 219.756 45.7146 226.86 46.1528 227.298C46.591 227.735 53.6842 221.341 61.9959 213.015Z" fill="#FFDA00"/>
<path d="M60.2417 212.978C68.5762 221.283 75.6871 227.661 76.1242 227.222C76.5613 226.783 70.1591 219.695 61.8245 211.39C53.4899 203.084 46.3791 196.707 45.942 197.146C45.5049 197.584 51.9071 204.673 60.2417 212.978Z" fill="#FFDA00"/>
<path d="M163.679 39.8026C163.679 61.665 162.558 79.6033 161.437 79.6033C160.315 79.6033 159.194 61.665 159.194 39.8026C159.194 17.9403 160.315 0.00195313 161.437 0.00195313C162.558 0.00195313 163.679 17.9403 163.679 39.8026Z" fill="#FFDA00"/>
<path d="M161.434 42.0451C183.416 42.0451 201.235 41.0412 201.235 39.8028C201.235 38.5645 183.416 37.5605 161.434 37.5605C139.453 37.5605 121.634 38.5645 121.634 39.8028C121.634 41.0412 139.453 42.0451 161.434 42.0451Z" fill="#FFDA00"/>
</svg>
