<svg width="9" height="15" viewBox="0 0 9 15" fill="none" xmlns="http://www.w3.org/2000/svg">
<path d="M7.22746 0L1.7729 0C0.831985 0 0.0683594 0.763626 0.0683594 1.70454L0.0683594 13.2955C0.0683594 14.2364 0.831985 15 1.7729 15H7.22746C8.16836 15 8.93199 14.2364 8.93199 13.2955V1.70454C8.93199 0.763626 8.16836 0 7.22746 0ZM4.50019 14.3182C3.93427 14.3182 3.47746 13.8614 3.47746 13.2955C3.47746 12.7295 3.93427 12.2727 4.50019 12.2727C5.06611 12.2727 5.52292 12.7295 5.52292 13.2955C5.52292 13.8614 5.06608 14.3182 4.50019 14.3182ZM7.56837 11.5909H1.43201V2.04546H7.56837V11.5909Z" fill="#664EF9"/>
</svg>
